<svg xmlns="http://www.w3.org/2000/svg" xmlns:xlink="http://www.w3.org/1999/xlink" width="310.961" height="255.325" viewBox="0 0 310.961 255.325"><defs><style>.a{fill:#3f3d56;}.b{fill:#f2f2f2;}.c{opacity:0.7;}.d{fill:url(#a);}.e{fill:#6e99d8;}.f{opacity:0.1;}.g{fill:#fed049;}.h{fill:#eee;}.i,.j{fill:none;stroke-miterlimit:10;}.i{stroke:#e0e0e0;stroke-width:8px;}.j{stroke:#bdbdbd;stroke-width:5px;}.k{fill:#b84733;}.l{fill:#f55f44;}.m{fill:#907227;}.n{opacity:0.05;}.o{fill:#fda57d;}.p{fill:#333;}.q{fill:url(#c);}.r{fill:#e0e0e0;}.s{fill:#535461;}.t{fill:#3e3f49;}</style><linearGradient id="a" x1="0.5" y1="1" x2="0.5" gradientUnits="objectBoundingBox"><stop offset="0" stop-color="gray" stop-opacity="0.251"/><stop offset="0.535" stop-color="gray" stop-opacity="0.122"/><stop offset="1" stop-color="gray" stop-opacity="0.102"/></linearGradient><linearGradient id="c" x1="0.5" y1="1" x2="0.5" y2="0" xlink:href="#a"/></defs><g transform="translate(0 0)"><path class="a" d="M207.933,610.072c0,15.438-9.178,20.828-20.5,20.828-.264,0-.526,0-.786-.01-.524-.011-1.044-.034-1.557-.071-10.218-.722-18.156-6.391-18.156-20.747,0-14.856,18.982-33.6,20.414-34.995h0l.083-.081S207.933,594.633,207.933,610.072Z" transform="translate(-161.09 -404.678)"/><path class="b" d="M208.912,628.538l7.5-10.476-7.516,11.625-.02,1.2c-.524-.011-1.044-.034-1.557-.071l.808-15.445-.006-.12.014-.023.076-1.459-7.535-11.655,7.558,10.561.019.309.611-11.669-6.451-12.043,6.529,9.992.635-24.192,0-.083v.081l-.105,19.078,6.421-7.564-6.448,9.206-.17,10.448,6-10.027-6.022,11.565-.094,5.808,8.7-13.957-8.737,15.985Z" transform="translate(-183.314 -404.678)"/><g class="c" transform="translate(266.003 93.47)"><path class="d" d="M947.9,353.52V349.8H929.312V367a3.625,3.625,0,0,0,3.625,3.625h11.34A3.625,3.625,0,0,0,947.9,367v-3.811a4.833,4.833,0,0,0,0-9.667Zm0,7.808v-5.948a2.974,2.974,0,1,1,0,5.949Z" transform="translate(-929.312 -349.802)"/></g><path class="e" d="M973.516,362.4a4.413,4.413,0,1,0,4.413,4.413A4.413,4.413,0,0,0,973.516,362.4Zm0,7.129a2.716,2.716,0,1,1,2.716-2.716,2.716,2.716,0,0,1-2.716,2.716Z" transform="translate(-689.521 -264.633)"/><path class="f" d="M973.516,362.4a4.413,4.413,0,1,0,4.413,4.413A4.413,4.413,0,0,0,973.516,362.4Zm0,7.129a2.716,2.716,0,1,1,2.716-2.716,2.716,2.716,0,0,1-2.716,2.716Z" transform="translate(-689.521 -264.633)"/><path class="g" d="M782.493,276.563h16.973v15.683a3.327,3.327,0,0,1-3.327,3.327H785.82a3.327,3.327,0,0,1-3.327-3.327Z" transform="translate(-515.472 -182.187)"/><path class="f" d="M966.693,352.455v15.7a3.31,3.31,0,0,1-3.31,3.31h1.7a3.31,3.31,0,0,0,3.31-3.31v-15.7Z" transform="translate(-685.753 -258.08)"/><path class="h" d="M940.542,314.534a.991.991,0,0,0-.75.381c-.223.4.181.859.549,1.136a7.3,7.3,0,0,1,1.86,1.731,2.17,2.17,0,0,1,.1,2.4c-.66.895-2.234,1.087-2.387,2.189-.1.707.514,1.311,1.133,1.665,1.529.876,3.5,1.109,4.607,2.48a3.571,3.571,0,0,1,2.5-1.719c1.021-.233,2.083-.215,3.118-.373a1.078,1.078,0,0,0,.86-.456c.289-.588-.536-1.292-.251-1.882.217-.449.853-.414,1.318-.594a1.717,1.717,0,0,0,.854-2.05,3.86,3.86,0,0,0-1.46-1.9,16.354,16.354,0,0,0-5.88-2.718,15.072,15.072,0,0,0-3.125-.723A15.622,15.622,0,0,0,940.542,314.534Z" transform="translate(-670.171 -232.813)"/><line class="i" x1="35.489" y2="110.563" transform="translate(115.753 117.394)"/><g class="c" transform="translate(65.305 0)"><path class="d" d="M454.612,316.3c-4.366.253-8.254,3.91-8.254,3.91l-1.881-4.665-.154.05c.919-4.021,19.61-86.921.9-94.068-14.378-5.492-29.628-12.288-41.577-12.032V189.912H420.4v-.7h13.261c2.542-1.816-1.152-3.065-5.28-3.845a3.771,3.771,0,0,0,.442-.624l21.24-38.107s4.886-8.027,1.745-11.865-7.678,9.772-7.678,9.772l-17.449,25.127s-17.611-18.356-28.814-27.484a19.611,19.611,0,0,0-4.17-3.152c-2.045-1.384-3.593-2.1-4.356-1.819l-.022.011a19.549,19.549,0,0,0-5.213-.709h-1.4v-2.863a22.389,22.389,0,0,0,13.829-13.1,25.149,25.149,0,0,0,1.993-21.9,1.454,1.454,0,0,0,.588-.2,2.144,2.144,0,0,0,.634-2.046,15.545,15.545,0,0,0-7.89-12.155c-1.768-.967-3.793-1.633-5.1-3.17-1.12-1.32-1.591-3.167-2.947-4.244-1.611-1.28-3.937-1.06-5.914-.489a21.52,21.52,0,0,0-6.172,2.913c-2.138,1.464-4.067,3.345-6.528,4.156-1.749.576-3.645.564-5.405,1.105a9.079,9.079,0,0,0-5.841,5.7,11.858,11.858,0,0,0-.5,4.453,24.988,24.988,0,0,0-2.507,5.7c-.132.071-.264.141-.395.214l.383-.172a25.121,25.121,0,0,0,7.078,25.624,22.37,22.37,0,0,0,10.732,7.617v3.464a26.39,26.39,0,0,0-8.565,3.508l0,0s-.223.138-.6.394l-.114.077c-2.582,1.753-11.236,8.157-10.943,15.077q-.017.4,0,.8a26.609,26.609,0,0,0-.713,6.1v50.221a24.664,24.664,0,0,0,5.293,15.3c-7.283,1.632-11.924,4.1-11.924,6.864a2.236,2.236,0,0,1,0,.7c0,4.915,14.687,8.9,32.8,8.9,2.19,0,4.33-.059,6.4-.17l20.471,16.572-32.8,52.7s-10.819,8.375-2.443,11.167,25.476,4.886,25.476,4.886,2.792-4.886-1.047-6.98-9.074-1.047-9.074-1.047l.7-4.188s56.884-48.858,45.019-65.609c-2.27-3.2-4.54-6.511-6.83-9.767l8.955.816,2.038,76.7.255-.083c-.512,1.507-4.13,12.878,3.89,10.954,8.585-2.06,24.205-9.327,24.205-9.327S458.977,316.048,454.612,316.3ZM420.4,184.328l-16.751-4.863V165.134l18.207,19.327C420.957,184.371,420.4,184.328,420.4,184.328Z" transform="translate(-341.177 -75.892)"/></g><circle cx="24.57" cy="24.57" r="24.57" transform="translate(75.145 9.219)"/><path class="g" d="M495.65,287.094,514.4,307a3.663,3.663,0,0,0,5.866-.728l20.769-37.262-5.8-2.047-17.062,24.57s-32.032-33.386-36.513-31.736S495.65,287.094,495.65,287.094Z" transform="translate(-367.954 -197)"/><line class="j" x1="27.641" y2="71.661" transform="translate(64.225 159.025)"/><line class="j" x2="27.641" y2="71.661" transform="translate(105.516 159.025)"/><ellipse class="k" cx="32.077" cy="8.702" rx="32.077" ry="8.702" transform="translate(66.614 150.835)"/><ellipse class="l" cx="32.077" cy="8.702" rx="32.077" ry="8.702" transform="translate(66.614 150.153)"/><line class="j" x2="30.265" y2="9.326" transform="translate(85.193 174.77)"/><line class="j" x1="30.265" y2="9.326" transform="translate(81.924 174.77)"/><path class="g" d="M240.176,182.016H249.7a19.11,19.11,0,0,1,19.11,19.11v50.5h-54.6V207.983a25.967,25.967,0,0,1,25.967-25.967Z" transform="translate(-141.112 -119.904)"/><path class="m" d="M214.209,386.016h54.6V415.7H238.437a24.228,24.228,0,0,1-24.228-24.228v-5.46Z" transform="translate(-141.111 -254.29)"/><path class="n" d="M366.068,287.461l33.387,31.722H436.31v-4.777l-31.736-9.214-27.147-33.524S365.1,279.284,366.068,287.461Z" transform="translate(-292.233 -204.861)"/><path class="g" d="M366.068,285.461l33.387,31.722H436.31v-4.777l-31.736-9.214-27.147-33.524S365.1,277.284,366.068,285.461Z" transform="translate(-292.233 -203.543)"/><path class="o" d="M572.012,394.908s17.745,1.365,12.967,4.777H572.012Z" transform="translate(-427.936 -286.046)"/><path class="o" d="M640.012,261.175s4.436-13.309,7.507-9.555-1.706,11.6-1.706,11.6Z" transform="translate(-472.731 -191.214)"/><path class="n" d="M214.209,386.016v1.593l54.6.114v-1.706Z" transform="translate(-141.111 -254.29)"/><path class="m" d="M480.394,496.846l36.727,3.347,1.992,75,13.148-4.281s19.665-84.969.913-92.131-39.021-16.593-51.123-8.907S480.394,496.846,480.394,496.846Z" transform="translate(-364.824 -333.54)"/><path class="f" d="M495.012,486.908s20.133,10.237,22.863,21.84" transform="translate(-377.211 -346.651)"/><path class="m" d="M425.425,506.4l28.664,23.2-32.077,51.528,13.309,3.754s55.623-47.774,44.021-64.154-23.2-35.489-37.537-35.831S425.425,506.4,425.425,506.4Z" transform="translate(-329.122 -345.326)"/><path class="n" d="M414.209,251.016l7.166,12.285,1.706-3.412Z" transform="translate(-272.862 -165.358)"/><path class="p" d="M411.4,766.908s-10.579,8.19-2.389,10.92,24.911,4.777,24.911,4.777,2.73-4.777-1.024-6.825-8.872-1.024-8.872-1.024l.682-4.095Z" transform="translate(-318.508 -531.103)"/><path class="p" d="M600.359,775.145s-4.647,12.887,3.748,10.872,23.669-9.12,23.669-9.12-.21-5.5-4.478-5.251-8.071,3.823-8.071,3.823l-1.839-4.562Z" transform="translate(-445.764 -533.738)"/><rect class="o" width="13.65" height="20.475" rx="6.825" transform="translate(93.572 50.168)"/><path class="n" d="M430.837,224.908a6.825,6.825,0,0,0-6.825,6.825v2.319a21.841,21.841,0,0,0,13.65,0v-2.319a6.825,6.825,0,0,0-6.825-6.825Z" transform="translate(-330.44 -174.057)"/><circle class="o" cx="21.84" cy="21.84" r="21.84" transform="translate(78.558 16.726)"/><path class="n" d="M377.377,139.169s5.46,1.407,8.531-4.8,5.46-9.59,18.086-5.923,15.166,4.114,15.773.647c.415-2.369-4.075-8.125-6.96-11.532a8.079,8.079,0,0,0-6.159-2.654H392.392l-8.531,3.949-6.484,5.641-1.365,7.616Z" transform="translate(-298.82 -101.594)"/><path d="M377.377,137.169s5.46,1.407,8.531-4.8,5.46-9.59,18.086-5.923,15.166,4.114,15.773.647c.415-2.369-4.075-8.125-6.96-11.532a8.079,8.079,0,0,0-6.159-2.654H392.392l-8.531,3.949-6.484,5.641-1.365,7.616Z" transform="translate(-298.82 -100.277)"/><ellipse class="o" cx="2.218" cy="4.436" rx="2.218" ry="4.436" transform="translate(78.558 32.424)"/><path d="M375.289,106.8c-.506-2.857-1-5.856-.082-8.607a8.877,8.877,0,0,1,5.711-5.57c1.721-.529,3.575-.518,5.285-1.081,2.407-.792,4.293-2.632,6.384-4.064a21.039,21.039,0,0,1,6.035-2.848c1.933-.558,4.208-.774,5.783.478,1.326,1.053,1.786,2.859,2.882,4.15,1.275,1.5,3.255,2.154,4.984,3.1a15.2,15.2,0,0,1,7.716,11.885,2.1,2.1,0,0,1-.62,2,2.212,2.212,0,0,1-1.244.227c-8.729-.125-17.468-.25-26.16-1.051a62.762,62.762,0,0,0-8.122-.461,26.567,26.567,0,0,0-11.959,3.374" transform="translate(-296.099 -81.359)"/><rect class="g" width="52.581" height="22.375" rx="11.187" transform="translate(0 220.194)"/><path class="q" d="M724.725,485.1a.512.512,0,1,0-.494-.512A.512.512,0,0,0,724.725,485.1Z" transform="translate(-528.21 -344.785)"/><line class="i" x2="35.489" y2="126.292" transform="translate(271.621 117.394)"/><rect class="r" width="191.645" height="7.468" transform="translate(115.609 113.695)"/><rect class="s" width="31.395" height="4.436" rx="2.218" transform="translate(162.845 111.934)"/><g class="c" transform="translate(181.955 62.474)"><rect class="d" width="78.029" height="53.951" rx="26.976"/></g><rect class="t" width="73.917" height="52.956" rx="26.478" transform="translate(183.346 63.469)"/><rect class="s" width="73.917" height="52.956" rx="26.478" transform="translate(184.37 63.469)"/><circle class="r" cx="2.389" cy="2.389" r="2.389" transform="translate(222.392 87.193)"/></g></svg>